<?xml version="1.0" encoding="UTF-8"?>
<!DOCTYPE svg PUBLIC "-//W3C//DTD SVG 1.1//EN" "http://www.w3.org/Graphics/SVG/1.1/DTD/svg11.dtd">
<svg version="1.2" width="5.03mm" height="5.03mm" viewBox="10099 6099 503 503" preserveAspectRatio="xMidYMid" fill-rule="evenodd" stroke-width="28.222" stroke-linejoin="round" xmlns="http://www.w3.org/2000/svg" xmlns:ooo="http://xml.openoffice.org/svg/export" xmlns:xlink="http://www.w3.org/1999/xlink" xmlns:presentation="http://sun.com/xmlns/staroffice/presentation" xmlns:smil="http://www.w3.org/2001/SMIL20/" xmlns:anim="urn:oasis:names:tc:opendocument:xmlns:animation:1.0" xml:space="preserve">
 <defs class="EmbeddedBulletChars">
  <g id="bullet-char-template-57356" transform="scale(0.00048828125,-0.00048828125)">
   <path d="M 580,1141 L 1163,571 580,0 -4,571 580,1141 Z"/>
  </g>
  <g id="bullet-char-template-57354" transform="scale(0.00048828125,-0.00048828125)">
   <path d="M 8,1128 L 1137,1128 1137,0 8,0 8,1128 Z"/>
  </g>
  <g id="bullet-char-template-10146" transform="scale(0.00048828125,-0.00048828125)">
   <path d="M 174,0 L 602,739 174,1481 1456,739 174,0 Z M 1358,739 L 309,1346 659,739 1358,739 Z"/>
  </g>
  <g id="bullet-char-template-10132" transform="scale(0.00048828125,-0.00048828125)">
   <path d="M 2015,739 L 1276,0 717,0 1260,543 174,543 174,936 1260,936 717,1481 1274,1481 2015,739 Z"/>
  </g>
  <g id="bullet-char-template-10007" transform="scale(0.00048828125,-0.00048828125)">
   <path d="M 0,-2 C -7,14 -16,27 -25,37 L 356,567 C 262,823 215,952 215,954 215,979 228,992 255,992 264,992 276,990 289,987 310,991 331,999 354,1012 L 381,999 492,748 772,1049 836,1024 860,1049 C 881,1039 901,1025 922,1006 886,937 835,863 770,784 769,783 710,716 594,584 L 774,223 C 774,196 753,168 711,139 L 727,119 C 717,90 699,76 672,76 641,76 570,178 457,381 L 164,-76 C 142,-110 111,-127 72,-127 30,-127 9,-110 8,-76 1,-67 -2,-52 -2,-32 -2,-23 -1,-13 0,-2 Z"/>
  </g>
  <g id="bullet-char-template-10004" transform="scale(0.00048828125,-0.00048828125)">
   <path d="M 285,-33 C 182,-33 111,30 74,156 52,228 41,333 41,471 41,549 55,616 82,672 116,743 169,778 240,778 293,778 328,747 346,684 L 369,508 C 377,444 397,411 428,410 L 1163,1116 C 1174,1127 1196,1133 1229,1133 1271,1133 1292,1118 1292,1087 L 1292,965 C 1292,929 1282,901 1262,881 L 442,47 C 390,-6 338,-33 285,-33 Z"/>
  </g>
  <g id="bullet-char-template-9679" transform="scale(0.00048828125,-0.00048828125)">
   <path d="M 813,0 C 632,0 489,54 383,161 276,268 223,411 223,592 223,773 276,916 383,1023 489,1130 632,1184 813,1184 992,1184 1136,1130 1245,1023 1353,916 1407,772 1407,592 1407,412 1353,268 1245,161 1136,54 992,0 813,0 Z"/>
  </g>
  <g id="bullet-char-template-8226" transform="scale(0.00048828125,-0.00048828125)">
   <path d="M 346,457 C 273,457 209,483 155,535 101,586 74,649 74,723 74,796 101,859 155,911 209,963 273,989 346,989 419,989 480,963 531,910 582,859 608,796 608,723 608,648 583,586 532,535 482,483 420,457 346,457 Z"/>
  </g>
  <g id="bullet-char-template-8211" transform="scale(0.00048828125,-0.00048828125)">
   <path d="M -4,459 L 1135,459 1135,606 -4,606 -4,459 Z"/>
  </g>
  <g id="bullet-char-template-61548" transform="scale(0.00048828125,-0.00048828125)">
   <path d="M 173,740 C 173,903 231,1043 346,1159 462,1274 601,1332 765,1332 928,1332 1067,1274 1183,1159 1299,1043 1357,903 1357,740 1357,577 1299,437 1183,322 1067,206 928,148 765,148 601,148 462,206 346,322 231,437 173,577 173,740 Z"/>
  </g>
 </defs>
 <g class="Page">
  <g class="com.sun.star.drawing.CustomShape">
   <g id="id3">
    <rect class="BoundingBox" stroke="none" fill="none" x="10099" y="6099" width="503" height="503"/>
    <path fill="rgb(114,159,207)" stroke="none" d="M 10600,6350 L 10600,6363 10599,6375 10597,6387 10595,6400 10592,6412 10589,6424 10585,6436 10580,6448 10575,6459 10569,6470 10563,6481 10556,6491 10549,6502 10541,6511 10533,6521 10524,6530 10515,6538 10505,6546 10495,6554 10485,6561 10474,6567 10463,6573 10451,6578 10440,6583 10428,6588 10416,6591 10404,6594 10392,6597 10379,6598 10367,6599 10354,6600 10342,6600 10329,6599 10317,6598 10304,6596 10292,6593 10280,6590 10268,6586 10256,6582 10245,6577 10234,6571 10223,6565 10212,6558 10202,6551 10192,6544 10182,6535 10173,6527 10165,6518 10156,6508 10149,6498 10142,6488 10135,6477 10129,6466 10123,6455 10118,6444 10114,6432 10110,6420 10107,6408 10104,6396 10102,6383 10101,6371 10100,6358 10100,6346 10101,6333 10102,6321 10103,6308 10106,6296 10109,6284 10112,6272 10117,6260 10122,6249 10127,6237 10133,6226 10139,6215 10146,6205 10154,6195 10162,6185 10170,6176 10179,6167 10189,6159 10198,6151 10209,6144 10219,6137 10230,6131 10241,6125 10252,6120 10264,6115 10276,6111 10288,6108 10300,6105 10313,6103 10325,6101 10337,6100 10350,6100 10350,6350 10600,6350 Z"/>
    <path fill="none" stroke="rgb(52,101,164)" d="M 10600,6350 L 10600,6363 10599,6375 10597,6387 10595,6400 10592,6412 10589,6424 10585,6436 10580,6448 10575,6459 10569,6470 10563,6481 10556,6491 10549,6502 10541,6511 10533,6521 10524,6530 10515,6538 10505,6546 10495,6554 10485,6561 10474,6567 10463,6573 10451,6578 10440,6583 10428,6588 10416,6591 10404,6594 10392,6597 10379,6598 10367,6599 10354,6600 10342,6600 10329,6599 10317,6598 10304,6596 10292,6593 10280,6590 10268,6586 10256,6582 10245,6577 10234,6571 10223,6565 10212,6558 10202,6551 10192,6544 10182,6535 10173,6527 10165,6518 10156,6508 10149,6498 10142,6488 10135,6477 10129,6466 10123,6455 10118,6444 10114,6432 10110,6420 10107,6408 10104,6396 10102,6383 10101,6371 10100,6358 10100,6346 10101,6333 10102,6321 10103,6308 10106,6296 10109,6284 10112,6272 10117,6260 10122,6249 10127,6237 10133,6226 10139,6215 10146,6205 10154,6195 10162,6185 10170,6176 10179,6167 10189,6159 10198,6151 10209,6144 10219,6137 10230,6131 10241,6125 10252,6120 10264,6115 10276,6111 10288,6108 10300,6105 10313,6103 10325,6101 10337,6100 10350,6100 10350,6350 10600,6350 Z"/>
   </g>
  </g>
 </g>
</svg>