<svg xmlns="http://www.w3.org/2000/svg" width="277" height="56"><defs><linearGradient x1="3.849%" y1="50.25%" x2="96.298%" y2="49.701%" id="a"><stop stop-color="#80E8FF" offset="0%"/><stop stop-color="#2148E4" offset="100%"/></linearGradient><linearGradient x1="2.798%" y1="50.302%" x2="97.05%" y2="49.747%" id="b"><stop stop-color="#80E8FF" offset="0%"/><stop stop-color="#2148E4" offset="100%"/></linearGradient></defs><g fill="none" fill-rule="evenodd"><path d="M.002 0C0 .062 0 .125 0 .187c0 3.892 1.197 7.51 3.24 10.503a18.738 18.738 0 003.085 3.497 18.549 18.549 0 0012.316 4.666c1.696 0 3.288.458 4.66 1.253a9.343 9.343 0 014.66 8.08 9.3 9.3 0 01-2.049 5.832 23.271 23.271 0 018.13 4.672 18.577 18.577 0 003.24-10.503c0-8.682-5.951-16-13.981-18.077a18.623 18.623 0 00-4.66-.59 9.301 9.301 0 01-7.272-3.502A9.3 9.3 0 019.32.187c0-.062 0-.125.004-.187H.002z" fill="url(#a)"/><path d="M0 28.187c0 8.682 5.95 15.999 13.98 18.076 1.49.385 3.052.59 4.66.59a9.301 9.301 0 017.272 3.502A9.31 9.31 0 0127.96 56h9.32a18.577 18.577 0 00-3.237-10.317 18.743 18.743 0 00-3.085-3.496A18.549 18.549 0 0018.64 37.52a9.266 9.266 0 01-4.66-1.253 9.343 9.343 0 01-4.66-8.08 9.3 9.3 0 012.048-5.832 23.28 23.28 0 01-8.13-4.672A18.577 18.577 0 000 28.187" fill="url(#b)"/><path d="M60.541 14.514c-7.692 0-13.928 6.245-13.928 13.947 0 7.703 6.236 13.948 13.928 13.948 7.693 0 13.929-6.245 13.929-13.948 0-7.702-6.236-13.947-13.929-13.947m0 4.836c5.017 0 9.099 4.088 9.099 9.111 0 5.025-4.082 9.112-9.099 9.112s-9.098-4.087-9.098-9.112c0-5.023 4.081-9.11 9.098-9.11m25.164 13.231h8.963l-4.482-10.988-4.481 10.988zm-8.81 9.363L88.14 14.978h4.095l11.243 26.967h-5.1l-2.202-5.378H84.198l-2.202 5.378h-5.1zm33.073-7.97c1.39 2.747 3.631 4.101 6.76 4.101 3.362 0 4.56-1.78 4.56-3.52 0-1.2-.425-2.013-1.545-2.748-1.12-.774-1.933-1.122-3.941-1.857-2.473-.928-3.903-1.625-5.448-2.863-1.545-1.277-2.28-3.018-2.28-5.3 0-2.167.812-3.908 2.396-5.262 1.622-1.354 3.593-2.012 5.95-2.012 3.67 0 6.452 1.47 8.307 4.372l-3.44 2.36c-1.042-1.586-2.626-2.399-4.79-2.399-2.125 0-3.67 1.2-3.67 2.863 0 1.122.463 1.664 1.12 2.321.425.31 1.507.774 2.01 1.045l1.39.542 1.584.619c2.55 1.045 4.366 2.167 5.487 3.366 1.12 1.2 1.7 2.824 1.7 4.836 0 4.759-3.285 7.97-9.428 7.97-4.984 0-8.654-2.321-10.354-6.151l3.632-2.283zm22.562 7.97h4.83V14.978h-4.83zm14.372-7.97c1.39 2.747 3.632 4.101 6.761 4.101 3.362 0 4.56-1.78 4.56-3.52 0-1.2-.426-2.013-1.546-2.748-1.12-.774-1.932-1.122-3.941-1.857-2.473-.928-3.902-1.625-5.448-2.863-1.545-1.277-2.279-3.018-2.279-5.3 0-2.167.811-3.908 2.395-5.262 1.623-1.354 3.593-2.012 5.95-2.012 3.67 0 6.453 1.47 8.307 4.372l-3.439 2.36c-1.043-1.586-2.627-2.399-4.79-2.399-2.126 0-3.671 1.2-3.671 2.863 0 1.122.464 1.664 1.12 2.321.425.31 1.507.774 2.01 1.045l1.39.542 1.585.619c2.55 1.045 4.365 2.167 5.486 3.366 1.12 1.2 1.7 2.824 1.7 4.836 0 4.759-3.284 7.97-9.427 7.97-4.984 0-8.655-2.321-10.354-6.151l3.631-2.283zm39.455-19.461c-7.692 0-13.928 6.245-13.928 13.947 0 7.703 6.236 13.948 13.928 13.948 7.693 0 13.929-6.245 13.929-13.948 0-7.702-6.236-13.947-13.929-13.947m0 3.018c6.019 0 10.915 4.903 10.915 10.93 0 6.026-4.896 10.93-10.915 10.93-6.018 0-10.914-4.904-10.914-10.93 0-6.027 4.896-10.93 10.914-10.93m24.513 11.065h5.487c1.507 0 2.782-.503 3.786-1.548 1.044-1.044 1.546-2.321 1.546-3.869 0-1.547-.502-2.824-1.546-3.869-1.004-1.044-2.28-1.547-3.786-1.547h-5.486v10.833zm-3.013 13.348V14.978h8.616c2.28 0 4.25.774 5.834 2.36 1.584 1.548 2.396 3.482 2.396 5.842 0 2.36-.812 4.295-2.396 5.881-1.584 1.548-3.554 2.322-5.834 2.322h-5.602v10.562h-3.014zm24.07 0V14.978h15.222v2.786H234.94v8.55h11.475V29.1H234.94v10.06h12.48v2.785zm23.143 0V14.978h2.626l16.266 21.59v-21.59h3.014v26.967h-2.434l-16.46-21.821v21.821z" fill="#0A2540"/></g></svg>